<?xml version="1.0" encoding="utf-8"?>
<!DOCTYPE svg PUBLIC "-//W3C//DTD SVG 1.1//EN" "http://www.w3.org/Graphics/SVG/1.1/DTD/svg11.dtd">
<svg version="1.1" id="Layer_1" xmlns="http://www.w3.org/2000/svg" xmlns:xlink="http://www.w3.org/1999/xlink" x="0px" y="0px"
	 width="101.083px" height="26.654px" viewBox="0 0 101.083 26.654" enable-background="new 0 0 101.083 26.654"
	 xml:space="preserve">
<g display="none">
	<path display="inline" d="M62.458,57.996h0.967v3.812h-0.596v-3.115l-1.396,2.776h-0.329l-1.394-2.777v3.116h-0.596v-3.812h0.971
		l1.188,2.469L62.458,57.996z M66.2,59.133c0.211,0.17,0.317,0.438,0.317,0.806v1.869h-0.506v-0.442l-0.052,0.062
		c-0.237,0.283-0.562,0.428-0.959,0.428c-0.297,0-0.547-0.085-0.742-0.253c-0.192-0.167-0.291-0.395-0.291-0.674
		c0-0.276,0.104-0.487,0.31-0.626c0.207-0.14,0.494-0.211,0.853-0.211h0.832v-0.14c0-0.409-0.229-0.615-0.683-0.615
		c-0.271,0-0.555,0.097-0.846,0.287l-0.244-0.343c0.347-0.267,0.742-0.401,1.179-0.401C65.706,58.877,65.986,58.963,66.2,59.133z
		 M65.956,60.462h-0.728c-0.463,0-0.698,0.15-0.698,0.45c0,0.152,0.061,0.271,0.18,0.354c0.115,0.077,0.274,0.117,0.479,0.117
		s0.383-0.058,0.535-0.172c0.153-0.115,0.231-0.273,0.231-0.472V60.462L65.956,60.462z M69.678,58.921h-0.717l-1.237,1.294v-2.456
		h-0.562v4.049h0.562V60.99l0.481-0.488l0.021,0.03l0.864,1.275h0.684l-1.184-1.75L69.678,58.921z M72.784,60.209v0.396h-2.312
		l0.002,0.03c0.017,0.223,0.118,0.403,0.306,0.539c0.186,0.135,0.399,0.202,0.637,0.202c0.362,0,0.646-0.111,0.842-0.334
		l0.313,0.343c-0.308,0.309-0.711,0.465-1.198,0.465c-0.403,0-0.752-0.137-1.035-0.404c-0.281-0.269-0.426-0.633-0.426-1.086
		c0-0.451,0.146-0.815,0.435-1.082c0.289-0.268,0.633-0.401,1.022-0.401c0.394,0,0.729,0.119,1.002,0.354
		C72.645,59.466,72.784,59.795,72.784,60.209z M72.222,60.148c0-0.256-0.081-0.455-0.243-0.593
		c-0.159-0.138-0.359-0.206-0.592-0.206c-0.233,0-0.444,0.071-0.629,0.213c-0.188,0.146-0.283,0.341-0.283,0.586v0.028h1.746
		L72.222,60.148L72.222,60.148z M75.602,61.139l-0.9-2.22h-0.601c1.176,2.917,1.176,2.976,1.176,2.999
		c0,0.125-0.046,0.241-0.138,0.347s-0.213,0.158-0.359,0.158c-0.135,0-0.268-0.055-0.394-0.165l-0.253,0.451
		c0.207,0.18,0.438,0.271,0.693,0.271c0.186,0,0.355-0.056,0.51-0.16c0.15-0.106,0.271-0.256,0.354-0.441l1.41-3.458h-0.6
		L75.602,61.139z M79.749,59.309c0.289,0.284,0.437,0.642,0.437,1.056s-0.146,0.771-0.437,1.057
		c-0.287,0.286-0.652,0.433-1.086,0.433s-0.8-0.146-1.086-0.433c-0.289-0.287-0.436-0.643-0.436-1.057s0.146-0.771,0.436-1.056
		c0.286-0.287,0.652-0.433,1.086-0.433C79.097,58.877,79.461,59.021,79.749,59.309z M79.622,60.363c0-0.289-0.092-0.53-0.271-0.715
		c-0.183-0.185-0.411-0.275-0.688-0.275c-0.274,0-0.509,0.093-0.688,0.275c-0.182,0.184-0.271,0.426-0.271,0.715
		c0,0.291,0.092,0.531,0.271,0.716c0.18,0.186,0.41,0.276,0.688,0.276c0.275,0,0.508-0.093,0.688-0.276
		C79.532,60.896,79.622,60.654,79.622,60.363z M82.727,60.485c0,0.28-0.084,0.497-0.248,0.646c-0.163,0.146-0.357,0.221-0.578,0.221
		c-0.467,0-0.705-0.284-0.705-0.844V58.92h-0.561v1.774c0,0.375,0.1,0.664,0.299,0.858c0.197,0.197,0.461,0.298,0.783,0.298
		c0.197,0,0.384-0.053,0.554-0.15c0.17-0.102,0.306-0.24,0.401-0.415l0.055-0.101v0.621h0.562V58.92h-0.562V60.485L82.727,60.485z
		 M84.98,59.055c-0.168,0.114-0.301,0.264-0.397,0.442L84.527,59.6v-0.68h-0.562v2.887h0.562v-1.231c0-0.342,0.08-0.617,0.239-0.82
		c0.16-0.206,0.4-0.312,0.715-0.312h0.004l-0.005-0.565C85.306,58.887,85.138,58.945,84.98,59.055z M90.734,58.877
		c-0.425,0-0.782,0.188-1.067,0.562l-0.028,0.04l-0.021-0.046c-0.162-0.376-0.464-0.559-0.92-0.559
		c-0.199,0-0.391,0.051-0.562,0.149c-0.172,0.101-0.305,0.238-0.391,0.414l-0.057,0.111v-0.63h-0.562v2.888h0.562v-1.563
		c0-0.281,0.084-0.498,0.248-0.646c0.164-0.146,0.357-0.222,0.579-0.222c0.223,0,0.389,0.069,0.491,0.208
		c0.104,0.137,0.156,0.35,0.156,0.635v1.588h0.562v-1.608c0.007-0.267,0.094-0.472,0.257-0.611c0.161-0.139,0.353-0.209,0.569-0.209
		c0.468,0,0.703,0.283,0.703,0.845v1.586h0.562v-1.774c0-0.373-0.103-0.662-0.299-0.859C91.32,58.977,91.057,58.877,90.734,58.877z
		 M94.471,59.133c0.211,0.17,0.318,0.438,0.318,0.806v1.869h-0.506v-0.442l-0.054,0.062c-0.235,0.283-0.56,0.428-0.957,0.428
		c-0.298,0-0.548-0.085-0.741-0.253c-0.193-0.167-0.291-0.395-0.291-0.674c0-0.276,0.104-0.487,0.309-0.626
		c0.207-0.14,0.494-0.211,0.853-0.211h0.831v-0.14c0-0.409-0.229-0.615-0.682-0.615c-0.27,0-0.555,0.097-0.846,0.287l-0.244-0.343
		c0.346-0.267,0.742-0.401,1.178-0.401C93.978,58.877,94.258,58.963,94.471,59.133z M94.228,60.462H93.5
		c-0.463,0-0.697,0.15-0.697,0.45c0,0.152,0.06,0.271,0.178,0.354c0.115,0.077,0.275,0.117,0.479,0.117
		c0.205,0,0.383-0.058,0.535-0.172c0.155-0.115,0.233-0.273,0.233-0.472V60.462z M96.448,59.055
		c-0.166,0.113-0.301,0.264-0.396,0.442L95.997,59.6v-0.68h-0.562v2.887h0.562v-1.231c0-0.342,0.08-0.617,0.237-0.82
		c0.16-0.206,0.399-0.312,0.716-0.312h0.004l-0.004-0.565C96.773,58.887,96.605,58.945,96.448,59.055z M99.87,58.921h-0.717
		l-1.236,1.294v-2.456h-0.562v4.049h0.562V60.99l0.481-0.488l0.021,0.03l0.865,1.275h0.682l-1.182-1.75L99.87,58.921z"/>
	<path display="inline" d="M20.887,58.59c0.139-0.121,0.276-0.246,0.41-0.379c1.538-1.527,2.307-3.397,2.307-5.608
		c0-2.21-0.768-4.081-2.307-5.608c-1.539-1.529-3.461-2.292-5.769-2.292c-2.307,0-4.229,0.764-5.768,2.292
		c-1.539,1.527-2.308,3.397-2.308,5.608s0.769,4.081,2.308,5.608c1.538,1.529,3.46,2.293,5.768,2.293
		c1.108,0,2.126-0.178,3.057-0.53c2.214,1.793,5.738,1.862,5.738,1.862C22.62,61.228,21.398,59.453,20.887,58.59z M20.158,56.528
		h-9.261c-0.361,0-0.653-0.292-0.653-0.652c0-0.358,0.292-0.651,0.653-0.651h9.261c0.36,0,0.652,0.293,0.652,0.651
		C20.811,56.236,20.519,56.528,20.158,56.528z M20.158,53.254h-9.261c-0.361,0-0.653-0.292-0.653-0.651s0.292-0.651,0.653-0.651
		h9.261c0.36,0,0.652,0.292,0.652,0.651S20.519,53.254,20.158,53.254z M20.158,49.981h-9.261c-0.361,0-0.653-0.292-0.653-0.652
		c0-0.361,0.292-0.653,0.653-0.653h9.261c0.36,0,0.652,0.292,0.652,0.653C20.811,49.689,20.519,49.981,20.158,49.981z
		 M13.542,40.139c0-1.724,0.889-3.119,1.985-3.119c1.096,0,1.985,1.396,1.985,3.119c0,1.723-0.889,3.119-1.985,3.119
		C14.431,43.259,13.542,41.862,13.542,40.139z M7.127,42.167c-0.96-1.663-0.88-3.505,0.178-4.116
		c1.058-0.609,2.693,0.242,3.653,1.904c0.959,1.663,0.88,3.505-0.178,4.115C9.723,44.682,8.087,43.83,7.127,42.167z M7.004,47.916
		c-0.611,1.059-2.454,1.139-4.116,0.178c-1.663-0.96-2.515-2.596-1.904-3.652c0.611-1.059,2.454-1.139,4.116-0.178
		C6.763,45.222,7.615,46.858,7.004,47.916z M6.269,52.686c0,1.098-1.396,1.984-3.12,1.984c-1.723,0-3.12-0.89-3.12-1.984
		c0-1.096,1.397-1.983,3.12-1.983C4.872,50.701,6.269,51.59,6.269,52.686z M27.578,52.977h1.956c1.619,0,2.82-0.312,3.603-0.931
		c0.783-0.621,1.174-1.599,1.174-2.935c0-1.335-0.383-2.322-1.151-2.964s-1.987-0.962-3.658-0.962h-3.785v11.021h1.861V52.977z
		 M27.578,46.874h1.892c1.009,0,1.75,0.158,2.224,0.474c0.473,0.314,0.71,0.854,0.71,1.616c0,0.764-0.187,1.341-0.56,1.734
		c-0.373,0.395-1.075,0.592-2.105,0.592h-2.161V46.874z M40.453,55.949c0.521-0.259,0.949-0.63,1.285-1.112v1.372h1.767v-8.39
		h-1.767v1.451c-0.715-1.052-1.624-1.577-2.728-1.577s-2.061,0.39-2.87,1.167c-0.81,0.778-1.214,1.819-1.214,3.122
		c0,1.306,0.394,2.354,1.183,3.153c0.788,0.8,1.713,1.198,2.775,1.198C39.409,56.335,39.932,56.207,40.453,55.949z M36.692,52.054
		c0-0.805,0.252-1.475,0.757-2.011c0.505-0.536,1.109-0.804,1.814-0.804c0.704,0,1.298,0.268,1.782,0.804
		c0.483,0.537,0.726,1.204,0.726,2.003c0,0.8-0.242,1.453-0.726,1.963c-0.484,0.511-1.072,0.766-1.766,0.766
		c-0.694,0-1.298-0.252-1.814-0.757C36.949,53.513,36.692,52.858,36.692,52.054z M58.09,47.82l-2.9,8.39h-2.02l-1.986-5.74
		l-1.987,5.74h-2.018l-2.902-8.39h1.83l2.082,6.339l2.082-6.339H52.1l2.081,6.339l2.082-6.339H58.09z M67.709,49.113
		c0-1.334-0.385-2.322-1.15-2.964c-0.77-0.642-1.988-0.962-3.659-0.962h-3.784v11.021h1.861v-3.231h1.954
		c1.618,0,2.819-0.312,3.604-0.931C67.316,51.426,67.709,50.448,67.709,49.113z M65.241,50.697
		c-0.373,0.396-1.074,0.593-2.104,0.593h-2.16v-4.415h1.893c1.01,0,1.75,0.158,2.225,0.474c0.474,0.314,0.709,0.854,0.709,1.616
		C65.803,49.728,65.613,50.304,65.241,50.697z M73.258,49.476c-0.871,0-1.528,0.283-1.971,0.853
		c-0.441,0.567-0.662,1.329-0.662,2.286v3.596h-1.768V47.82h1.768v1.688c0.283-0.524,0.67-0.957,1.16-1.293
		c0.486-0.336,1.006-0.51,1.553-0.521l0.016,1.782C73.322,49.476,73.292,49.476,73.258,49.476z M74.441,46.148
		c-0.221-0.222-0.33-0.482-0.33-0.789c0-0.305,0.109-0.566,0.33-0.789c0.222-0.221,0.483-0.331,0.789-0.331s0.567,0.11,0.788,0.331
		c0.223,0.222,0.331,0.484,0.331,0.789c0,0.306-0.108,0.567-0.331,0.789c-0.221,0.222-0.482,0.331-0.788,0.331
		S74.663,46.369,74.441,46.148z M74.333,47.82h1.767v8.39h-1.767V47.82z M84.715,48.561c0.584,0.579,0.875,1.414,0.875,2.507v5.142
		h-1.766v-4.604c0-1.545-0.644-2.317-1.926-2.317c-0.609,0-1.143,0.202-1.594,0.606s-0.68,0.996-0.68,1.773v4.541H77.86v-8.39h1.766
		v1.529c0.285-0.516,0.678-0.92,1.178-1.215c0.498-0.294,1.035-0.44,1.613-0.44C83.368,47.694,84.131,47.983,84.715,48.561z
		 M91.613,54.254l0.728,1.245c-0.62,0.559-1.307,0.836-2.059,0.836c-0.753,0-1.395-0.261-1.925-0.779
		c-0.53-0.521-0.797-1.224-0.797-2.104v-4.21h-1.058V47.82h1.058v-2.633h1.769v2.633h2.207v1.42h-2.207v4.257
		c0,0.399,0.104,0.718,0.313,0.954c0.21,0.235,0.505,0.354,0.883,0.354C90.904,54.806,91.267,54.621,91.613,54.254z M99.971,53.701
		c0,0.799-0.289,1.438-0.867,1.916s-1.318,0.718-2.223,0.718c-0.61,0-1.244-0.109-1.9-0.331c-0.658-0.221-1.238-0.53-1.742-0.93
		l0.852-1.373c0.979,0.735,1.926,1.104,2.84,1.104c0.396,0,0.715-0.094,0.943-0.276c0.23-0.183,0.35-0.418,0.35-0.7
		c0-0.42-0.559-0.8-1.674-1.137c-0.084-0.03-0.146-0.052-0.188-0.062c-1.744-0.473-2.615-1.262-2.615-2.364
		c0-0.778,0.301-1.4,0.904-1.869s1.393-0.702,2.355-0.702c0.968,0,1.883,0.284,2.744,0.853l-0.662,1.31
		c-0.685-0.452-1.426-0.679-2.225-0.679c-0.42,0-0.762,0.077-1.023,0.229c-0.264,0.153-0.396,0.382-0.396,0.687
		c0,0.272,0.138,0.474,0.41,0.601c0.188,0.095,0.454,0.185,0.796,0.269s0.645,0.168,0.906,0.253c0.264,0.084,0.52,0.18,0.766,0.284
		c0.247,0.104,0.514,0.252,0.797,0.44C99.688,52.314,99.971,52.902,99.971,53.701z M13.508,40.134c0-1.72,0.888-3.114,1.982-3.114
		c1.094,0,1.982,1.396,1.982,3.114c0,1.72-0.888,3.115-1.982,3.115C14.396,43.249,13.508,41.855,13.508,40.134z"/>
</g>
<path fill="#3399FF" d="M21.957,21.121c0.197-0.173,0.393-0.351,0.583-0.539c2.191-2.177,3.285-4.839,3.285-7.984
	c0-3.149-1.094-5.811-3.285-7.986c-2.189-2.176-4.926-3.265-8.211-3.265c-3.285,0-6.021,1.089-8.211,3.265
	c-2.189,2.175-3.285,4.837-3.285,7.986c0,3.146,1.096,5.808,3.285,7.984c2.191,2.174,4.928,3.265,8.211,3.265
	c1.577,0,3.026-0.254,4.353-0.756c3.153,2.552,8.169,2.651,8.169,2.651C24.424,24.878,22.684,22.351,21.957,21.121z M20.919,18.187
	H7.734c-0.513,0-0.929-0.414-0.929-0.927c0-0.515,0.416-0.931,0.929-0.931h13.186c0.514,0,0.929,0.416,0.929,0.931
	C21.849,17.77,21.432,18.187,20.919,18.187z M20.919,13.526H7.734c-0.513,0-0.929-0.414-0.929-0.928c0-0.513,0.416-0.93,0.929-0.93
	h13.186c0.514,0,0.929,0.417,0.929,0.93C21.849,13.112,21.432,13.526,20.919,13.526z M20.919,8.865H7.734
	c-0.513,0-0.929-0.417-0.929-0.927c0-0.513,0.416-0.93,0.929-0.93h13.186c0.514,0,0.929,0.417,0.929,0.93
	C21.849,8.448,21.432,8.865,20.919,8.865z"/>
<g display="none">
	<path display="inline" fill="#FFFFFF" d="M62.458,57.996h0.967v3.812h-0.596v-3.115l-1.396,2.776h-0.329l-1.394-2.777v3.116h-0.596
		v-3.812h0.971l1.188,2.469L62.458,57.996z M66.2,59.133c0.211,0.17,0.317,0.438,0.317,0.806v1.869h-0.506v-0.442l-0.052,0.062
		c-0.237,0.283-0.562,0.428-0.959,0.428c-0.297,0-0.547-0.085-0.742-0.253c-0.192-0.167-0.291-0.395-0.291-0.674
		c0-0.276,0.104-0.487,0.31-0.626c0.207-0.14,0.494-0.211,0.853-0.211h0.832v-0.14c0-0.409-0.229-0.615-0.683-0.615
		c-0.271,0-0.555,0.097-0.846,0.287l-0.244-0.343c0.347-0.267,0.742-0.401,1.179-0.401C65.706,58.877,65.986,58.963,66.2,59.133z
		 M65.956,60.462h-0.728c-0.463,0-0.698,0.15-0.698,0.45c0,0.152,0.061,0.271,0.18,0.354c0.115,0.077,0.274,0.117,0.479,0.117
		s0.383-0.058,0.535-0.172c0.153-0.115,0.231-0.273,0.231-0.472V60.462L65.956,60.462z M69.678,58.921h-0.717l-1.237,1.294v-2.456
		h-0.562v4.049h0.562V60.99l0.481-0.488l0.021,0.03l0.864,1.275h0.684l-1.184-1.75L69.678,58.921z M72.784,60.209v0.396h-2.312
		l0.002,0.03c0.017,0.223,0.118,0.403,0.306,0.539c0.186,0.135,0.399,0.202,0.637,0.202c0.362,0,0.646-0.111,0.842-0.334
		l0.313,0.343c-0.308,0.309-0.711,0.465-1.198,0.465c-0.403,0-0.752-0.137-1.035-0.404c-0.281-0.269-0.426-0.633-0.426-1.086
		c0-0.451,0.146-0.815,0.435-1.082c0.289-0.268,0.633-0.401,1.022-0.401c0.394,0,0.729,0.119,1.002,0.354
		C72.645,59.466,72.784,59.795,72.784,60.209z M72.222,60.148c0-0.256-0.081-0.455-0.243-0.593
		c-0.159-0.138-0.359-0.206-0.592-0.206c-0.233,0-0.444,0.071-0.629,0.213c-0.188,0.146-0.283,0.341-0.283,0.586v0.028h1.746
		L72.222,60.148L72.222,60.148z M75.602,61.139l-0.9-2.22h-0.601c1.176,2.917,1.176,2.976,1.176,2.999
		c0,0.125-0.046,0.241-0.138,0.347s-0.213,0.158-0.359,0.158c-0.135,0-0.268-0.055-0.394-0.165l-0.253,0.451
		c0.207,0.18,0.438,0.271,0.693,0.271c0.186,0,0.355-0.056,0.51-0.16c0.15-0.106,0.271-0.256,0.354-0.441l1.41-3.458h-0.6
		L75.602,61.139z M79.749,59.309c0.289,0.284,0.437,0.642,0.437,1.056s-0.146,0.771-0.437,1.057
		c-0.287,0.286-0.652,0.433-1.086,0.433s-0.8-0.146-1.086-0.433c-0.289-0.287-0.436-0.643-0.436-1.057s0.146-0.771,0.436-1.056
		c0.286-0.287,0.652-0.433,1.086-0.433C79.097,58.877,79.461,59.021,79.749,59.309z M79.622,60.363c0-0.289-0.092-0.53-0.271-0.715
		c-0.183-0.185-0.411-0.275-0.688-0.275c-0.274,0-0.509,0.093-0.688,0.275c-0.182,0.184-0.271,0.426-0.271,0.715
		c0,0.291,0.092,0.531,0.271,0.716c0.18,0.186,0.41,0.276,0.688,0.276c0.275,0,0.508-0.093,0.688-0.276
		C79.532,60.896,79.622,60.654,79.622,60.363z M82.727,60.485c0,0.28-0.084,0.497-0.248,0.646c-0.163,0.146-0.357,0.221-0.578,0.221
		c-0.467,0-0.705-0.284-0.705-0.844V58.92h-0.561v1.774c0,0.375,0.1,0.664,0.299,0.858c0.197,0.197,0.461,0.298,0.783,0.298
		c0.197,0,0.384-0.053,0.554-0.15c0.17-0.102,0.306-0.24,0.401-0.415l0.055-0.101v0.621h0.562V58.92h-0.562V60.485L82.727,60.485z
		 M84.98,59.055c-0.168,0.114-0.301,0.264-0.397,0.442L84.527,59.6v-0.68h-0.562v2.887h0.562v-1.231c0-0.342,0.08-0.617,0.239-0.82
		c0.16-0.206,0.4-0.312,0.715-0.312h0.004l-0.005-0.565C85.306,58.887,85.138,58.945,84.98,59.055z M90.734,58.877
		c-0.425,0-0.782,0.188-1.067,0.562l-0.028,0.04l-0.021-0.046c-0.162-0.376-0.464-0.559-0.92-0.559
		c-0.199,0-0.391,0.051-0.562,0.149c-0.172,0.101-0.305,0.238-0.391,0.414l-0.057,0.111v-0.63h-0.562v2.888h0.562v-1.563
		c0-0.281,0.084-0.498,0.248-0.646c0.164-0.146,0.357-0.222,0.579-0.222c0.223,0,0.389,0.069,0.491,0.208
		c0.104,0.137,0.156,0.35,0.156,0.635v1.588h0.562v-1.608c0.007-0.267,0.094-0.472,0.257-0.611c0.161-0.139,0.353-0.209,0.569-0.209
		c0.468,0,0.703,0.283,0.703,0.845v1.586h0.562v-1.774c0-0.373-0.103-0.662-0.299-0.859C91.32,58.977,91.057,58.877,90.734,58.877z
		 M94.471,59.133c0.211,0.17,0.318,0.438,0.318,0.806v1.869h-0.506v-0.442l-0.054,0.062c-0.235,0.283-0.56,0.428-0.957,0.428
		c-0.298,0-0.548-0.085-0.741-0.253c-0.193-0.167-0.291-0.395-0.291-0.674c0-0.276,0.104-0.487,0.309-0.626
		c0.207-0.14,0.494-0.211,0.853-0.211h0.831v-0.14c0-0.409-0.229-0.615-0.682-0.615c-0.27,0-0.555,0.097-0.846,0.287l-0.244-0.343
		c0.346-0.267,0.742-0.401,1.178-0.401C93.978,58.877,94.258,58.963,94.471,59.133z M94.228,60.462H93.5
		c-0.463,0-0.697,0.15-0.697,0.45c0,0.152,0.06,0.271,0.178,0.354c0.115,0.077,0.275,0.117,0.479,0.117
		c0.205,0,0.383-0.058,0.535-0.172c0.155-0.115,0.233-0.273,0.233-0.472V60.462z M96.448,59.055
		c-0.166,0.113-0.301,0.264-0.396,0.442L95.997,59.6v-0.68h-0.562v2.887h0.562v-1.231c0-0.342,0.08-0.617,0.237-0.82
		c0.16-0.206,0.399-0.312,0.716-0.312h0.004l-0.004-0.565C96.773,58.887,96.605,58.945,96.448,59.055z M99.87,58.921h-0.717
		l-1.236,1.294v-2.456h-0.562v4.049h0.562V60.99l0.481-0.488l0.021,0.03l0.865,1.275h0.682l-1.182-1.75L99.87,58.921z"/>
	<path display="inline" fill="#FFFFFF" d="M20.887,58.59c0.139-0.121,0.276-0.246,0.41-0.379c1.538-1.527,2.307-3.397,2.307-5.608
		c0-2.21-0.768-4.081-2.307-5.608c-1.539-1.529-3.461-2.292-5.769-2.292c-2.307,0-4.229,0.764-5.768,2.292
		c-1.539,1.527-2.308,3.397-2.308,5.608s0.769,4.081,2.308,5.608c1.538,1.529,3.46,2.293,5.768,2.293
		c1.108,0,2.126-0.178,3.057-0.53c2.214,1.793,5.738,1.862,5.738,1.862C22.62,61.228,21.398,59.453,20.887,58.59z M20.158,56.528
		h-9.261c-0.361,0-0.653-0.292-0.653-0.652c0-0.358,0.292-0.651,0.653-0.651h9.261c0.36,0,0.652,0.293,0.652,0.651
		C20.811,56.236,20.519,56.528,20.158,56.528z M20.158,53.254h-9.261c-0.361,0-0.653-0.292-0.653-0.651s0.292-0.651,0.653-0.651
		h9.261c0.36,0,0.652,0.292,0.652,0.651S20.519,53.254,20.158,53.254z M20.158,49.981h-9.261c-0.361,0-0.653-0.292-0.653-0.652
		c0-0.361,0.292-0.653,0.653-0.653h9.261c0.36,0,0.652,0.292,0.652,0.653C20.811,49.689,20.519,49.981,20.158,49.981z
		 M13.542,40.139c0-1.724,0.889-3.119,1.985-3.119c1.096,0,1.985,1.396,1.985,3.119c0,1.723-0.889,3.119-1.985,3.119
		C14.431,43.259,13.542,41.862,13.542,40.139z M7.127,42.167c-0.96-1.663-0.88-3.505,0.178-4.116
		c1.058-0.609,2.693,0.242,3.653,1.904c0.959,1.663,0.88,3.505-0.178,4.115C9.723,44.682,8.087,43.83,7.127,42.167z M7.004,47.916
		c-0.611,1.059-2.454,1.139-4.116,0.178c-1.663-0.96-2.515-2.596-1.904-3.652c0.611-1.059,2.454-1.139,4.116-0.178
		C6.763,45.222,7.615,46.858,7.004,47.916z M6.269,52.686c0,1.098-1.396,1.984-3.12,1.984c-1.723,0-3.12-0.89-3.12-1.984
		c0-1.096,1.397-1.983,3.12-1.983C4.872,50.701,6.269,51.59,6.269,52.686z M27.578,52.977h1.956c1.619,0,2.82-0.312,3.603-0.931
		c0.783-0.621,1.174-1.599,1.174-2.935c0-1.335-0.383-2.322-1.151-2.964s-1.987-0.962-3.658-0.962h-3.785v11.021h1.861V52.977z
		 M27.578,46.874h1.892c1.009,0,1.75,0.158,2.224,0.474c0.473,0.314,0.71,0.854,0.71,1.616c0,0.764-0.187,1.341-0.56,1.734
		c-0.373,0.395-1.075,0.592-2.105,0.592h-2.161V46.874z M40.453,55.949c0.521-0.259,0.949-0.63,1.285-1.112v1.372h1.767v-8.39
		h-1.767v1.451c-0.715-1.052-1.624-1.577-2.728-1.577s-2.061,0.39-2.87,1.167c-0.81,0.778-1.214,1.819-1.214,3.122
		c0,1.306,0.394,2.354,1.183,3.153c0.788,0.8,1.713,1.198,2.775,1.198C39.409,56.335,39.932,56.207,40.453,55.949z M36.692,52.054
		c0-0.805,0.252-1.475,0.757-2.011c0.505-0.536,1.109-0.804,1.814-0.804c0.704,0,1.298,0.268,1.782,0.804
		c0.483,0.537,0.726,1.204,0.726,2.003c0,0.8-0.242,1.453-0.726,1.963c-0.484,0.511-1.072,0.766-1.766,0.766
		c-0.694,0-1.298-0.252-1.814-0.757C36.949,53.513,36.692,52.858,36.692,52.054z M58.09,47.82l-2.9,8.39h-2.02l-1.986-5.74
		l-1.987,5.74h-2.018l-2.902-8.39h1.83l2.082,6.339l2.082-6.339H52.1l2.081,6.339l2.082-6.339H58.09z M67.709,49.113
		c0-1.334-0.385-2.322-1.15-2.964c-0.77-0.642-1.988-0.962-3.659-0.962h-3.784v11.021h1.861v-3.231h1.954
		c1.618,0,2.819-0.312,3.604-0.931C67.316,51.426,67.709,50.448,67.709,49.113z M65.241,50.697
		c-0.373,0.396-1.074,0.593-2.104,0.593h-2.16v-4.415h1.893c1.01,0,1.75,0.158,2.225,0.474c0.474,0.314,0.709,0.854,0.709,1.616
		C65.803,49.728,65.613,50.304,65.241,50.697z M73.258,49.476c-0.871,0-1.528,0.283-1.971,0.853
		c-0.441,0.567-0.662,1.329-0.662,2.286v3.596h-1.768V47.82h1.768v1.688c0.283-0.524,0.67-0.957,1.16-1.293
		c0.486-0.336,1.006-0.51,1.553-0.521l0.016,1.782C73.322,49.476,73.292,49.476,73.258,49.476z M74.441,46.148
		c-0.221-0.222-0.33-0.482-0.33-0.789c0-0.305,0.109-0.566,0.33-0.789c0.222-0.221,0.483-0.331,0.789-0.331s0.567,0.11,0.788,0.331
		c0.223,0.222,0.331,0.484,0.331,0.789c0,0.306-0.108,0.567-0.331,0.789c-0.221,0.222-0.482,0.331-0.788,0.331
		S74.663,46.369,74.441,46.148z M74.333,47.82h1.767v8.39h-1.767V47.82z M84.715,48.561c0.584,0.579,0.875,1.414,0.875,2.507v5.142
		h-1.766v-4.604c0-1.545-0.644-2.317-1.926-2.317c-0.609,0-1.143,0.202-1.594,0.606s-0.68,0.996-0.68,1.773v4.541H77.86v-8.39h1.766
		v1.529c0.285-0.516,0.678-0.92,1.178-1.215c0.498-0.294,1.035-0.44,1.613-0.44C83.368,47.694,84.131,47.983,84.715,48.561z
		 M91.613,54.254l0.728,1.245c-0.62,0.559-1.307,0.836-2.059,0.836c-0.753,0-1.395-0.261-1.925-0.779
		c-0.53-0.521-0.797-1.224-0.797-2.104v-4.21h-1.058V47.82h1.058v-2.633h1.769v2.633h2.207v1.42h-2.207v4.257
		c0,0.399,0.104,0.718,0.313,0.954c0.21,0.235,0.505,0.354,0.883,0.354C90.904,54.806,91.267,54.621,91.613,54.254z M99.971,53.701
		c0,0.799-0.289,1.438-0.867,1.916s-1.318,0.718-2.223,0.718c-0.61,0-1.244-0.109-1.9-0.331c-0.658-0.221-1.238-0.53-1.742-0.93
		l0.852-1.373c0.979,0.735,1.926,1.104,2.84,1.104c0.396,0,0.715-0.094,0.943-0.276c0.23-0.183,0.35-0.418,0.35-0.7
		c0-0.42-0.559-0.8-1.674-1.137c-0.084-0.03-0.146-0.052-0.188-0.062c-1.744-0.473-2.615-1.262-2.615-2.364
		c0-0.778,0.301-1.4,0.904-1.869s1.393-0.702,2.355-0.702c0.968,0,1.883,0.284,2.744,0.853l-0.662,1.31
		c-0.685-0.452-1.426-0.679-2.225-0.679c-0.42,0-0.762,0.077-1.023,0.229c-0.264,0.153-0.396,0.382-0.396,0.687
		c0,0.272,0.138,0.474,0.41,0.601c0.188,0.095,0.454,0.185,0.796,0.269s0.645,0.168,0.906,0.253c0.264,0.084,0.52,0.18,0.766,0.284
		c0.247,0.104,0.514,0.252,0.797,0.44C99.688,52.314,99.971,52.902,99.971,53.701z M13.508,40.134c0-1.72,0.888-3.114,1.982-3.114
		c1.094,0,1.982,1.396,1.982,3.114c0,1.72-0.888,3.115-1.982,3.115C14.396,43.249,13.508,41.855,13.508,40.134z"/>
</g>
<g>
	<path fill="#3399FF" d="M29.341,7.01h4.02c0.72,0,1.38,0.067,1.98,0.2c0.6,0.133,1.11,0.35,1.53,0.65s0.747,0.697,0.98,1.19
		c0.233,0.494,0.35,1.1,0.35,1.82c0,0.693-0.117,1.293-0.35,1.8c-0.233,0.507-0.563,0.927-0.99,1.26s-0.937,0.583-1.53,0.75
		s-1.25,0.25-1.97,0.25h-2.36v5.2h-1.66V7.01z M33.162,13.57c1.146,0,1.997-0.216,2.55-0.65c0.553-0.433,0.83-1.117,0.83-2.05
		c0-0.947-0.28-1.604-0.84-1.97s-1.407-0.55-2.54-0.55h-2.16v5.22H33.162z"/>
	<path fill="#3399FF" d="M39.001,15.29c0-0.801,0.123-1.517,0.37-2.15c0.247-0.633,0.573-1.17,0.98-1.61s0.87-0.776,1.39-1.01
		s1.06-0.35,1.62-0.35c0.613,0,1.164,0.107,1.651,0.32c0.486,0.213,0.893,0.52,1.219,0.92c0.327,0.4,0.577,0.88,0.75,1.44
		c0.174,0.56,0.261,1.186,0.261,1.879c0,0.36-0.021,0.66-0.06,0.9h-6.561c0.066,1.054,0.39,1.887,0.97,2.5
		c0.58,0.613,1.337,0.92,2.27,0.92c0.467,0,0.897-0.07,1.29-0.21c0.394-0.14,0.771-0.323,1.131-0.55l0.58,1.08
		c-0.428,0.267-0.9,0.5-1.42,0.7c-0.521,0.199-1.113,0.3-1.78,0.3c-0.653,0-1.264-0.117-1.83-0.351c-0.567-0.232-1.06-0.566-1.48-1
		c-0.42-0.433-0.75-0.963-0.99-1.59C39.122,16.803,39.001,16.09,39.001,15.29z M45.801,14.55c0-1-0.21-1.763-0.63-2.29
		c-0.42-0.526-1.01-0.79-1.77-0.79c-0.347,0-0.677,0.07-0.99,0.21c-0.313,0.14-0.597,0.34-0.85,0.6
		c-0.253,0.26-0.463,0.58-0.63,0.96c-0.167,0.38-0.277,0.817-0.33,1.31H45.801z"/>
	<path fill="#3399FF" d="M49.141,11.75h-1.439v-1.24l1.52-0.1l0.2-2.72h1.38v2.72h2.62v1.34h-2.62v5.399
		c0,0.601,0.109,1.063,0.33,1.391c0.22,0.327,0.609,0.49,1.17,0.49c0.173,0,0.359-0.027,0.561-0.08
		c0.199-0.054,0.379-0.113,0.539-0.181l0.32,1.24c-0.268,0.094-0.557,0.177-0.87,0.25s-0.624,0.11-0.93,0.11
		c-0.521,0-0.957-0.08-1.31-0.24c-0.354-0.16-0.641-0.38-0.861-0.66c-0.219-0.28-0.376-0.62-0.469-1.02
		c-0.094-0.4-0.141-0.84-0.141-1.32V11.75z"/>
	<path fill="#3399FF" d="M55.961,8.409c-0.32,0-0.591-0.1-0.811-0.3s-0.33-0.453-0.33-0.76c0-0.32,0.11-0.577,0.33-0.77
		s0.49-0.29,0.811-0.29c0.319,0,0.59,0.097,0.81,0.29s0.33,0.45,0.33,0.77c0,0.307-0.11,0.56-0.33,0.76S56.281,8.409,55.961,8.409z
		 M55.121,10.409h1.641v9.72h-1.641V10.409z"/>
	<path fill="#3399FF" d="M59.821,11.75h-1.439v-1.24l1.52-0.1l0.2-2.72h1.38v2.72h2.62v1.34h-2.62v5.399
		c0,0.601,0.11,1.063,0.33,1.391s0.609,0.49,1.17,0.49c0.173,0,0.36-0.027,0.56-0.08c0.2-0.054,0.38-0.113,0.54-0.181l0.32,1.24
		c-0.267,0.094-0.557,0.177-0.87,0.25s-0.623,0.11-0.93,0.11c-0.521,0-0.957-0.08-1.311-0.24s-0.64-0.38-0.859-0.66
		c-0.221-0.28-0.377-0.62-0.471-1.02c-0.093-0.4-0.14-0.84-0.14-1.32V11.75z"/>
	<path fill="#3399FF" d="M66.641,8.409c-0.32,0-0.591-0.1-0.811-0.3S65.5,7.656,65.5,7.35c0-0.32,0.11-0.577,0.33-0.77
		s0.49-0.29,0.811-0.29c0.319,0,0.59,0.097,0.81,0.29s0.33,0.45,0.33,0.77c0,0.307-0.11,0.56-0.33,0.76S66.96,8.409,66.641,8.409z
		 M65.8,10.409h1.641v9.72H65.8V10.409z"/>
	<path fill="#3399FF" d="M69.5,15.29c0-0.813,0.123-1.537,0.37-2.17c0.246-0.633,0.576-1.17,0.99-1.61c0.413-0.44,0.89-0.773,1.43-1
		c0.54-0.227,1.11-0.34,1.71-0.34s1.17,0.113,1.71,0.34c0.54,0.227,1.017,0.56,1.43,1s0.743,0.977,0.99,1.61s0.37,1.356,0.37,2.17
		c0,0.8-0.123,1.517-0.37,2.149c-0.247,0.634-0.577,1.167-0.99,1.601s-0.89,0.764-1.43,0.99S74.6,20.37,74,20.37
		s-1.17-0.113-1.71-0.34s-1.017-0.557-1.43-0.99c-0.414-0.434-0.744-0.967-0.99-1.601C69.624,16.806,69.5,16.09,69.5,15.29z
		 M71.201,15.29c0,0.56,0.066,1.066,0.2,1.52c0.133,0.454,0.323,0.844,0.569,1.17c0.247,0.327,0.544,0.58,0.891,0.761
		c0.347,0.18,0.727,0.27,1.14,0.27s0.793-0.09,1.14-0.27c0.347-0.181,0.644-0.434,0.891-0.761c0.246-0.326,0.437-0.716,0.569-1.17
		c0.134-0.453,0.2-0.96,0.2-1.52c0-0.561-0.066-1.07-0.2-1.53c-0.133-0.46-0.323-0.856-0.569-1.19
		c-0.247-0.333-0.544-0.59-0.891-0.77c-0.347-0.18-0.727-0.27-1.14-0.27s-0.793,0.09-1.14,0.27c-0.347,0.18-0.644,0.437-0.891,0.77
		c-0.246,0.333-0.437,0.73-0.569,1.19C71.267,14.219,71.201,14.729,71.201,15.29z"/>
	<path fill="#3399FF" d="M80.56,10.409h1.36l0.14,1.4h0.061c0.467-0.467,0.956-0.857,1.47-1.17c0.514-0.313,1.11-0.47,1.79-0.47
		c1.026,0,1.776,0.32,2.25,0.96s0.71,1.587,0.71,2.84v6.16h-1.64V14.19c0-0.92-0.147-1.583-0.44-1.991
		c-0.293-0.406-0.76-0.61-1.399-0.61c-0.507,0-0.954,0.127-1.341,0.38c-0.387,0.253-0.826,0.627-1.319,1.12v7.04H80.56V10.409z"/>
	<path fill="#3399FF" d="M90.74,17.929c0.427,0.347,0.863,0.627,1.311,0.84c0.446,0.214,0.963,0.32,1.55,0.32
		c0.64,0,1.12-0.146,1.439-0.44c0.32-0.293,0.48-0.652,0.48-1.079c0-0.254-0.067-0.474-0.2-0.66c-0.134-0.187-0.304-0.351-0.51-0.49
		c-0.207-0.14-0.443-0.263-0.71-0.37c-0.268-0.106-0.533-0.213-0.8-0.32c-0.348-0.119-0.694-0.256-1.04-0.409
		c-0.348-0.153-0.657-0.341-0.931-0.561s-0.497-0.477-0.67-0.771c-0.173-0.292-0.26-0.646-0.26-1.06c0-0.386,0.076-0.75,0.229-1.09
		s0.374-0.633,0.66-0.88c0.287-0.247,0.637-0.44,1.051-0.58c0.413-0.14,0.88-0.21,1.399-0.21c0.613,0,1.177,0.107,1.69,0.32
		c0.513,0.213,0.956,0.474,1.33,0.78l-0.78,1.04c-0.334-0.253-0.68-0.46-1.04-0.62s-0.754-0.24-1.18-0.24
		c-0.614,0-1.063,0.14-1.351,0.42c-0.287,0.28-0.43,0.606-0.43,0.98c0,0.227,0.06,0.423,0.18,0.59c0.12,0.167,0.28,0.313,0.48,0.44
		c0.2,0.127,0.43,0.24,0.689,0.34c0.261,0.1,0.53,0.203,0.811,0.311c0.347,0.133,0.696,0.273,1.05,0.42s0.67,0.33,0.95,0.55
		c0.279,0.22,0.51,0.49,0.689,0.81c0.181,0.32,0.271,0.707,0.271,1.16c0,0.4-0.077,0.773-0.23,1.12s-0.38,0.653-0.68,0.92
		s-0.674,0.477-1.12,0.63c-0.447,0.153-0.957,0.23-1.53,0.23c-0.693,0-1.354-0.127-1.979-0.38c-0.627-0.254-1.174-0.573-1.641-0.96
		L90.74,17.929z"/>
</g>
</svg>
