<?xml version="1.0" encoding="utf-8"?>
<!-- Generator: Adobe Illustrator 16.0.0, SVG Export Plug-In . SVG Version: 6.00 Build 0)  -->
<!DOCTYPE svg PUBLIC "-//W3C//DTD SVG 1.1//EN" "http://www.w3.org/Graphics/SVG/1.1/DTD/svg11.dtd">
<svg version="1.1" id="Layer_1" xmlns="http://www.w3.org/2000/svg" xmlns:xlink="http://www.w3.org/1999/xlink" x="0px" y="0px"
	 width="100px" height="100px" viewBox="0 0 100 100" enable-background="new 0 0 100 100" xml:space="preserve">
<rect id="LinkedIn_2_" x="0" fill="#027BB6" width="100" height="100"/>
<path id="LinkedIn_1_" fill="#FFFFFF" d="M84.252,57.564v25.879H69.25V59.299c0-6.066-2.172-10.205-7.602-10.205
	c-4.146,0-6.613,2.789-7.699,5.488c-0.395,0.965-0.496,2.307-0.496,3.658v25.203H38.446c0,0,0.202-40.895,0-45.133h15.007v6.398
	c-0.031,0.047-0.07,0.1-0.1,0.146h0.1v-0.146c1.992-3.07,5.553-7.457,13.523-7.457C76.852,37.252,84.252,43.703,84.252,57.564z
	 M22.746,16.555c-5.135,0-8.493,3.369-8.493,7.797c0,4.332,3.262,7.803,8.294,7.803h0.101c5.233,0,8.488-3.471,8.488-7.803
	C31.037,19.924,27.88,16.555,22.746,16.555z M15.144,83.443h15.003V38.311H15.144V83.443z"/>
</svg>
