<?xml version="1.0" encoding="utf-8"?>
<!-- Generator: Adobe Illustrator 16.0.0, SVG Export Plug-In . SVG Version: 6.00 Build 0)  -->
<!DOCTYPE svg PUBLIC "-//W3C//DTD SVG 1.1//EN" "http://www.w3.org/Graphics/SVG/1.1/DTD/svg11.dtd">
<svg version="1.1" id="Layer_1" xmlns="http://www.w3.org/2000/svg" xmlns:xlink="http://www.w3.org/1999/xlink" x="0px" y="0px"
	 width="100px" height="100px" viewBox="0 0 100 100" enable-background="new 0 0 100 100" xml:space="preserve">
<rect id="Google_x2B__3_" fill="#DD4B38" width="100" height="100"/>
<path id="Google_x2B__2_" fill="#FFFFFF" d="M51.457,71.441c0-0.594-0.062-1.154-0.211-1.701c-0.127-0.555-0.242-1.041-0.377-1.504
	c-0.14-0.471-0.4-0.957-0.748-1.459c-0.341-0.508-0.624-0.941-0.875-1.275c-0.249-0.35-0.628-0.768-1.111-1.246
	c-0.511-0.486-0.887-0.828-1.15-1.07c-0.3-0.252-0.749-0.602-1.357-1.094c-0.646-0.465-1.062-0.791-1.295-0.936
	c-0.253-0.182-0.728-0.516-1.428-0.994c-0.661-0.455-1.073-0.768-1.263-0.857c-0.44-0.068-1.164-0.1-2.089-0.1
	c-1.528,0-3.022,0.107-4.467,0.297c-1.443,0.205-2.987,0.539-4.523,1.055c-1.58,0.486-2.939,1.146-4.166,1.922
	c-1.151,0.797-2.107,1.854-2.865,3.145c-0.782,1.344-1.116,2.848-1.116,4.533c0,1.9,0.44,3.594,1.473,5.09
	c1.008,1.512,2.288,2.674,3.898,3.539c1.608,0.844,3.293,1.496,5.081,1.906c1.743,0.418,3.551,0.639,5.347,0.639
	c1.622,0,3.216-0.176,4.69-0.518c1.517-0.371,2.939-0.902,4.244-1.646c1.348-0.746,2.375-1.777,3.162-3.1
	C51.063,74.752,51.457,73.219,51.457,71.441 M46.432,35.189c0-1.693-0.241-3.463-0.716-5.361c-0.475-1.9-1.127-3.73-1.988-5.492
	c-0.835-1.77-2.045-3.229-3.549-4.391c-1.476-1.139-3.146-1.723-5.013-1.723c-2.619,0-4.604,0.986-6.059,2.908
	c-1.443,1.945-2.144,4.262-2.144,6.941c0,1.33,0.172,2.697,0.471,4.162c0.327,1.459,0.837,2.924,1.498,4.375
	c0.676,1.451,1.447,2.787,2.349,3.934c0.924,1.17,2.001,2.113,3.292,2.857c1.28,0.697,2.657,1.086,4.115,1.086
	c2.715,0,4.663-0.844,5.88-2.545C45.802,40.24,46.432,38,46.432,35.189 M40.878,15.215h18.405l-5.678,3.326h-5.7
	c2.007,1.262,3.551,3,4.635,5.279c1.076,2.277,1.629,4.641,1.629,7.115c0,2.074-0.326,3.928-0.953,5.529
	c-0.633,1.604-1.418,2.926-2.348,3.873c-0.911,1.012-1.858,1.9-2.77,2.729c-0.951,0.826-1.722,1.686-2.345,2.582
	c-0.687,0.881-0.987,1.814-0.987,2.832c0,0.73,0.215,1.436,0.672,2.135c0.478,0.721,1.093,1.391,1.828,2.027
	c0.758,0.639,1.559,1.314,2.486,2.027c0.87,0.691,1.77,1.482,2.671,2.332c0.901,0.852,1.729,1.77,2.435,2.766
	c0.772,1.002,1.392,2.201,1.818,3.568c0.456,1.398,0.689,2.887,0.689,4.506c0,4.465-1.94,8.422-5.892,11.855
	c-4.227,3.66-10.146,5.514-17.659,5.514c-1.622,0-3.325-0.152-5.036-0.434c-1.696-0.273-3.414-0.752-5.113-1.412
	c-1.714-0.646-3.239-1.465-4.585-2.438c-1.287-0.949-2.375-2.203-3.203-3.73c-0.868-1.557-1.269-3.25-1.269-5.119
	c0-1.701,0.505-3.6,1.547-5.672c0.875-1.816,2.263-3.344,4.044-4.656c1.8-1.299,3.815-2.295,6.078-2.992
	c2.263-0.684,4.457-1.186,6.545-1.512c2.083-0.312,4.164-0.51,6.308-0.562c-1.821-2.348-2.715-4.42-2.715-6.273
	c0-0.318,0.026-0.668,0.108-0.98c0.051-0.334,0.103-0.584,0.218-0.812c0.085-0.227,0.175-0.547,0.319-0.918
	c0.156-0.373,0.249-0.684,0.285-0.904c-1.128,0.152-2.077,0.213-2.941,0.213c-4.156,0-7.773-1.375-10.739-4.133
	c-2.972-2.748-4.46-6.189-4.46-10.32c0-3.949,1.326-7.467,3.994-10.572c2.627-3.084,5.907-5.059,9.822-5.926
	C35.657,15.48,38.296,15.215,40.878,15.215 M84.611,25.969v5.377H73.812v10.785h-5.395V31.346H57.701v-5.377h10.717V15.215h5.395
	v10.754H84.611z"/>
</svg>
