<?xml version="1.0" encoding="utf-8"?>
<!-- Generator: Adobe Illustrator 16.0.0, SVG Export Plug-In . SVG Version: 6.00 Build 0)  -->
<!DOCTYPE svg PUBLIC "-//W3C//DTD SVG 1.1//EN" "http://www.w3.org/Graphics/SVG/1.1/DTD/svg11.dtd">
<svg version="1.1" id="Layer_1" xmlns="http://www.w3.org/2000/svg" xmlns:xlink="http://www.w3.org/1999/xlink" x="0px" y="0px"
	 width="100px" height="100px" viewBox="0 0 100 100" enable-background="new 0 0 100 100" xml:space="preserve">
<rect id="reddit_3_" x="0" y="0" width="100" height="100"/>
<path id="reddit_1_" fill="#FFFFFF" d="M64.66,52.336c0.18,0.463,0.262,0.939,0.262,1.414c0,0.953-0.33,1.881-0.883,2.637
	c-0.547,0.746-1.32,1.328-2.232,1.582h0.002c-0.008,0.004-0.016,0.004-0.02,0.006c-0.004,0-0.01,0.004-0.014,0.004
	c-0.426,0.146-0.863,0.215-1.299,0.215c-1.018,0-2.018-0.367-2.816-0.992c-0.793-0.623-1.393-1.518-1.58-2.58h-0.002
	c0-0.002,0-0.006-0.002-0.01c0-0.004,0-0.006-0.002-0.012h0.002c-0.059-0.273-0.09-0.547-0.09-0.816c0-0.92,0.312-1.803,0.83-2.531
	c0.516-0.725,1.24-1.301,2.09-1.596c0.004,0,0.006-0.002,0.006-0.002c0.006,0,0.006-0.004,0.008-0.004
	c0.482-0.178,0.988-0.268,1.49-0.268c0.914,0,1.816,0.277,2.574,0.785c0.752,0.498,1.361,1.23,1.666,2.139
	c0.002,0.006,0.002,0.012,0.006,0.016c0,0.008,0.004,0.01,0.006,0.014H64.66z M61.861,63.613c-0.359-0.232-0.773-0.373-1.213-0.373
	c-0.354,0-0.721,0.1-1.047,0.318l0,0c-3.094,1.846-6.732,2.857-10.343,2.857c-2.71,0-5.403-0.572-7.843-1.771l-0.012-0.006
	l-0.012-0.004c-0.368-0.15-0.787-0.473-1.244-0.775c-0.232-0.15-0.476-0.301-0.745-0.41c-0.266-0.113-0.561-0.193-0.876-0.193
	c-0.261,0-0.536,0.059-0.807,0.182c-0.014,0.006-0.027,0.012-0.041,0.018h0.001c-0.425,0.162-0.758,0.459-0.972,0.811
	c-0.223,0.363-0.333,0.785-0.333,1.207c0,0.379,0.089,0.76,0.275,1.104c0.176,0.328,0.448,0.613,0.804,0.805
	c3.488,2.354,7.594,3.418,11.717,3.414c3.718,0,7.456-0.861,10.786-2.428l0.018-0.01l0.016-0.01
	c0.439-0.258,1.023-0.492,1.572-0.832c0.273-0.174,0.539-0.373,0.766-0.635c0.229-0.258,0.412-0.578,0.516-0.957l0,0
	c0.043-0.168,0.064-0.33,0.064-0.492c0-0.311-0.076-0.604-0.203-0.867C62.518,64.17,62.215,63.846,61.861,63.613z M37.375,57.955
	c0.006,0,0.014,0.004,0.021,0.008c0.445,0.162,0.904,0.242,1.358,0.242c1.133,0,2.234-0.465,3.068-1.221
	c0.833-0.758,1.402-1.832,1.402-3.055c0-0.033,0-0.064-0.001-0.104c0.003-0.055,0.004-0.115,0.004-0.176
	c0-1.213-0.562-2.291-1.387-3.053c-0.828-0.764-1.926-1.229-3.064-1.229c-0.304,0-0.614,0.035-0.916,0.105
	c-0.005,0-0.008,0.002-0.012,0.002c0,0-0.003,0-0.005,0c-1.505,0.314-2.827,1.432-3.314,2.969l0,0v0.002
	c0,0.004-0.001,0.006-0.001,0.006c-0.14,0.422-0.205,0.855-0.205,1.285c0,0.943,0.312,1.859,0.848,2.615
	c0.532,0.742,1.285,1.326,2.189,1.598C37.366,57.951,37.369,57.953,37.375,57.955z M84.598,46.97v0.006
	c0.01,0.154,0.014,0.307,0.014,0.459c0,1.7-0.545,3.334-1.455,4.721c-0.85,1.299-2.021,2.385-3.369,3.121
	c0.086,0.678,0.137,1.359,0.137,2.039c-0.002,3.66-1.264,7.26-3.463,10.145l0,0h-0.004c-4.064,5.406-10.305,8.594-16.605,10.203
	H59.85l-0.004,0.004C56.484,78.482,53.02,78.9,49.557,78.9c-5.164,0-10.324-0.932-15.138-2.863l-0.001-0.004h-0.005
	c-4.992-2.057-9.748-5.328-12.665-10.119c-1.569-2.559-2.431-5.557-2.431-8.57c0-0.682,0.046-1.363,0.137-2.041
	c-1.314-0.738-2.452-1.787-3.296-3.041c-0.902-1.346-1.474-2.92-1.546-4.588v-0.006v-0.006v-0.014
	c0.001-2.332,1.015-4.543,2.59-6.172c1.576-1.629,3.727-2.695,6.034-2.695c0.032,0,0.063,0,0.096,0
	c0.241-0.016,0.486-0.025,0.73-0.025c1.159,0,2.321,0.188,3.424,0.611l0.006,0.004l0.006,0.002c0.941,0.396,1.877,0.875,2.711,1.537
	c0.271-0.141,0.565-0.301,0.896-0.428c5.056-2.992,10.932-4.148,16.659-4.48c0.05-2.838,0.398-5.807,1.782-8.406
	c1.153-2.158,3.151-3.84,5.534-4.422l0.01-0.006h0.012c0.906-0.176,1.82-0.258,2.729-0.258c2.42,0,4.812,0.574,7.049,1.467
	c0.99-1.494,2.406-2.66,4.064-3.314l0.016-0.01l0.014-0.006c0.975-0.303,2.004-0.48,3.035-0.48c1.09,0,2.188,0.199,3.215,0.658
	V21.22c0.002,0.004,0.004,0.004,0.004,0.004c0.008,0.002,0.014,0.008,0.02,0.008c1.475,0.568,2.723,1.617,3.605,2.92
	c0.887,1.311,1.408,2.879,1.408,4.492c0,0.297-0.018,0.596-0.053,0.895l-0.002,0.006c0,0.004,0,0.01-0.002,0.014
	c-0.174,2.086-1.229,3.914-2.725,5.219c-1.504,1.311-3.451,2.102-5.449,2.102c-0.322,0-0.645-0.02-0.967-0.061
	c-1.982-0.152-3.832-1.111-5.189-2.539c-1.363-1.424-2.24-3.328-2.24-5.383c0-0.1,0.008-0.201,0.012-0.301
	c-1.861-0.828-3.838-1.516-5.801-1.514c-0.285,0-0.568,0.016-0.854,0.043h-0.002c-1.471,0.143-2.838,1.07-3.5,2.402v0.002v0.004
	c-1.006,1.959-1.207,4.248-1.236,6.52c5.637,0.369,11.307,1.721,16.281,4.58h0.008l0.07,0.041c0.096,0.057,0.27,0.152,0.428,0.236
	c0.342-0.277,0.703-0.562,1.115-0.809c1.508-1.004,3.295-1.502,5.08-1.502c0.793,0,1.588,0.1,2.359,0.297h0.002l0.031,0.01
	c0.012,0.002,0.021,0.006,0.029,0.006v0.002c1.82,0.461,3.467,1.508,4.707,2.916c1.238,1.412,2.072,3.199,2.234,5.137V46.97z
	 M67.992,28.521c0,0.076,0.002,0.156,0.01,0.234v0.004v0.01c0.035,0.979,0.498,1.891,1.201,2.564
	c0.707,0.674,1.643,1.09,2.594,1.094h0.014h0.012c0.068,0.006,0.139,0.006,0.205,0.006c0.959,0.002,1.912-0.412,2.627-1.084
	c0.717-0.674,1.189-1.59,1.229-2.578l0.002-0.006v-0.006c0.006-0.074,0.008-0.146,0.008-0.223c0-1.018-0.475-1.986-1.219-2.703
	c-0.742-0.719-1.74-1.162-2.725-1.16c-0.316,0-0.631,0.043-0.939,0.139L71,24.814l-0.01,0.004c-0.811,0.211-1.57,0.711-2.117,1.375
	C68.324,26.855,67.992,27.671,67.992,28.521z M26.38,43.632c-0.753-0.352-1.533-0.602-2.303-0.598c-0.129,0-0.26,0.008-0.389,0.021
	H23.67l-0.019,0.002c-1.106,0.031-2.222,0.514-3.06,1.287c-0.838,0.77-1.393,1.809-1.436,2.955v0.012l-0.001,0.008
	c-0.007,0.094-0.01,0.186-0.01,0.273c0,0.708,0.217,1.391,0.584,2.014c0.272,0.463,0.629,0.885,1.033,1.252
	C22.055,48.029,24.074,45.628,26.38,43.632z M75.488,57.475c0-2.521-0.91-5.057-2.383-7.096c-2.938-4.088-7.496-6.754-12.236-8.241
	l-0.033-0.012c-0.91-0.279-1.83-0.525-2.756-0.738c-2.771-0.631-5.611-0.945-8.449-0.945c-3.811,0-7.621,0.564-11.27,1.689
	c-4.74,1.504-9.312,4.152-12.244,8.254v0.002c-1.486,2.049-2.356,4.592-2.356,7.123c0,0.932,0.117,1.863,0.363,2.771h0.003
	c0.533,2.035,1.577,3.852,2.927,5.436c1.351,1.586,3.006,2.939,4.749,4.043c0.386,0.238,0.773,0.465,1.17,0.689
	c5.06,2.824,10.887,4.061,16.672,4.061c0.979,0,1.963-0.033,2.936-0.104c5.824-0.48,11.676-2.201,16.404-5.715l0.002-0.004
	c1.504-1.111,2.898-2.459,4.002-3.99c1.107-1.533,1.918-3.246,2.279-5.107v-0.006l0.002-0.002
	C75.418,58.889,75.488,58.184,75.488,57.475z M80.088,47.435c-0.002-0.611-0.143-1.221-0.449-1.789l-0.008-0.008l-0.002-0.008
	c-0.41-0.846-1.055-1.484-1.83-1.918c-0.777-0.438-1.686-0.66-2.598-0.66c-0.822,0-1.643,0.186-2.371,0.551
	c2.314,2.008,4.344,4.422,5.656,7.264c0.422-0.367,0.781-0.816,1.051-1.316C79.889,48.896,80.088,48.162,80.088,47.435z"/>
</svg>
