<?xml version="1.0" encoding="utf-8"?>
<!-- Generator: Adobe Illustrator 16.0.0, SVG Export Plug-In . SVG Version: 6.00 Build 0)  -->
<!DOCTYPE svg PUBLIC "-//W3C//DTD SVG 1.1//EN" "http://www.w3.org/Graphics/SVG/1.1/DTD/svg11.dtd">
<svg version="1.1" id="Layer_1" xmlns="http://www.w3.org/2000/svg" xmlns:xlink="http://www.w3.org/1999/xlink" x="0px" y="0px"
	 width="100px" height="100px" viewBox="0 0 100 100" enable-background="new 0 0 100 100" xml:space="preserve">
<rect id="Twitter_3_" x="0" fill="#2CA9E1" width="100" height="100"/>
<path id="Twitter_2_" fill="#FFFFFF" d="M84.828,28.078c-2.576,1.141-5.344,1.914-8.248,2.26c2.965-1.777,5.242-4.59,6.314-7.945
	c-2.775,1.646-5.85,2.842-9.121,3.484c-2.619-2.791-6.352-4.533-10.482-4.533c-7.93,0-14.361,6.43-14.361,14.359
	c0,1.127,0.127,2.223,0.372,3.273c-11.936-0.598-22.518-6.316-29.601-15.006c-1.236,2.121-1.945,4.59-1.945,7.221
	c0,4.982,2.536,9.379,6.39,11.953c-2.355-0.074-4.569-0.721-6.505-1.795c-0.001,0.059-0.001,0.119-0.001,0.18
	c0,6.959,4.95,12.764,11.52,14.082c-1.205,0.328-2.474,0.504-3.783,0.504c-0.926,0-1.825-0.09-2.702-0.258
	c1.827,5.705,7.131,9.857,13.415,9.973c-4.915,3.854-11.107,6.148-17.835,6.148c-1.16,0-2.303-0.068-3.426-0.201
	c6.355,4.076,13.905,6.453,22.015,6.453c26.416,0,40.861-21.883,40.861-40.861c0-0.623-0.014-1.242-0.041-1.857
	C80.467,33.486,82.902,30.957,84.828,28.078z"/>
</svg>
